<svg width="220" height="31" viewBox="0 0 220 31" fill="none" xmlns="http://www.w3.org/2000/svg">
<g clip-path="url(#clip0_56_7)">
<path d="M71.8688 11.128H76.013V11.2526L74.5945 12.4884C74.5285 14.5556 74.5058 16.4839 74.5285 18.2222C74.5285 19.9932 74.5945 21.6458 74.6852 23.1818H73.0358C73.0249 23.0526 72.9688 22.9312 72.877 22.8387C72.7595 22.6998 72.6399 22.5568 72.5451 22.4302L65.4094 13.5404C65.4094 16.2674 65.4526 19.0005 65.5413 21.8051L67.0979 22.9572V23.1185H62.9744V22.9572L64.3867 21.8051C64.5166 19.3906 64.5166 16.2898 64.3867 12.4455L62.6961 11.2526V11.128H66.2897C66.5513 11.5596 66.8478 11.9695 67.1763 12.3536C67.5886 12.9092 68.1123 13.5485 68.7576 14.3064C69.403 15.0642 70.0957 15.9405 70.8936 16.9476C71.6915 17.9546 72.5925 19.0597 73.5863 20.3385C73.5863 18.8452 73.5718 17.4624 73.5657 16.1489C73.5595 14.8355 73.5203 13.618 73.5079 12.4966L71.8771 11.2608L71.8688 11.128ZM83.2085 12.2249L84.5962 11.2546V11.1321H79.7323V11.2546L81.13 12.2249C81.1469 15.4278 81.1469 18.6492 81.13 21.9276L79.6869 22.9265V23.0756H84.6623V22.9265L83.2185 21.9276C83.1569 18.8003 83.1569 15.5953 83.2185 12.2249H83.2085ZM96.8862 22.0543C95.1708 22.1251 93.53 22.1251 91.9646 22.0543C91.9362 20.4774 91.9362 18.9113 91.9646 17.3562C92.8738 17.3296 94.1339 17.3153 95.7546 17.3153L96.6839 18.6778H96.8185V14.9785H96.6839L95.7546 16.3695C93.6185 16.3695 92.3338 16.3471 91.9362 16.3225C91.9177 15.6464 91.8908 14.9621 91.8908 14.2798C91.8908 13.5976 91.8908 12.9153 91.9177 12.1738C92.6677 12.1167 93.4846 12.1065 94.2846 12.1065C95.0838 12.1065 95.9338 12.1167 96.8185 12.1167L97.8308 13.4975H97.9646V11.128H88.5131V11.2526L89.8931 12.2249C89.9254 15.0091 89.9254 18.2263 89.8931 21.9297L88.5177 22.9245V23.0756H98.2077V20.4202H98.0715L96.8862 22.0543ZM55.1912 11.2526L56.7953 12.4884C56.8098 13.6098 56.8304 14.8212 56.8428 16.1408C56.8551 17.4603 56.8675 18.8371 56.8675 20.3303C55.9088 19.0515 55.0119 17.9403 54.2078 16.9395C53.4038 15.9385 52.6615 15.0356 52.0327 14.2982C51.4038 13.5608 50.9028 12.9011 50.4802 12.3455C50.1562 11.9569 49.8586 11.5475 49.5895 11.1198H46.0041V11.2445L47.6803 12.4537C47.8122 16.2878 47.8122 19.3988 47.6803 21.8132L46.2886 22.9653V23.1267H50.4121V22.9653L48.8555 21.8132C48.7668 19.0087 48.7029 16.2755 48.7029 13.5485L55.849 22.4465C55.9638 22.5761 56.0706 22.7125 56.1685 22.855C56.2628 22.9472 56.3232 23.068 56.3397 23.1982H57.9891C57.875 21.6621 57.8186 20.0089 57.82 18.2385C57.8076 16.5002 57.82 14.5719 57.9025 12.5048L59.3189 11.2689V11.1443H55.1954L55.1912 11.2526ZM3.45969 8.113L5.31528 9.25285L5.43692 22.0911C5.43692 22.6181 5.43692 23.0613 5.4163 23.4617C5.39758 23.8217 5.35903 24.1804 5.30085 24.5362C5.24116 24.8516 5.14356 25.1588 5.01014 25.4513C4.86073 25.7442 4.67662 26.0185 4.46171 26.2684C4.17932 26.6089 3.82818 26.8872 3.43083 27.0854C3.01914 27.2882 2.56238 27.3844 2.10305 27.3653C2.15995 27.3063 2.20477 27.2369 2.23501 27.161C2.27763 27.0885 2.31088 27.0109 2.33398 26.9302C2.35908 26.8231 2.37086 26.7133 2.36902 26.6034C2.36995 26.4792 2.34096 26.3567 2.28449 26.2458C2.2181 26.1128 2.13497 25.9885 2.03708 25.8762C1.92575 25.7786 1.79987 25.6987 1.6639 25.6392C1.52565 25.5677 1.37244 25.5292 1.2165 25.5268C1.06062 25.5291 0.906639 25.561 0.762914 25.6208C0.619953 25.6782 0.490203 25.7637 0.381488 25.8721C0.263165 25.9792 0.172643 26.1131 0.117583 26.2622C0.0404722 26.4144 0.000233313 26.5822 6.30219e-05 26.7525C-0.00235542 26.9942 0.0648772 27.2316 0.193868 27.4368C0.318385 27.6299 0.485442 27.7926 0.682505 27.9127C0.884069 28.0315 1.10221 28.1204 1.3299 28.1762C1.55447 28.24 1.78696 28.2723 2.02058 28.2722C2.48223 28.2702 2.94045 28.1936 3.37722 28.0455C3.80307 27.8968 4.20617 27.6905 4.57511 27.4327C4.95653 27.159 5.30639 26.8446 5.61835 26.4951C5.93632 26.1188 6.20958 25.7076 6.43275 25.2695C6.63892 24.8895 6.82861 24.5218 6.99561 24.1603C7.18945 23.7907 7.33694 23.399 7.43476 22.9939C7.56556 22.553 7.65935 22.1021 7.71515 21.6458C7.78169 21.0935 7.80715 20.537 7.79146 19.981C7.77908 19.3253 7.76462 18.6695 7.75231 17.9812C7.73992 17.2928 7.73369 16.5145 7.71515 15.6505C7.69662 14.7865 7.69042 13.8448 7.67805 12.7908C7.66568 11.7367 7.65331 10.4866 7.65331 9.11392L9.19139 8.12523V7.98638H3.45969V8.113ZM23.2525 19.5275C23.5115 18.7483 23.6348 17.9312 23.6175 17.111C23.6245 16.3612 23.5238 15.6143 23.3185 14.8927C23.1398 14.2662 22.8539 13.6748 22.4732 13.1442C22.1162 12.6532 21.6489 12.2512 21.1083 11.9696C20.5472 11.6802 19.9225 11.5328 19.2898 11.5406C18.6646 11.5337 18.0475 11.6812 17.4941 11.9696C16.9662 12.2632 16.5101 12.6684 16.1581 13.1564C15.7721 13.6797 15.485 14.2679 15.3107 14.8927C15.1178 15.6165 15.0228 16.3625 15.0282 17.111C15.0159 17.9037 15.1315 18.6933 15.3705 19.4498C15.5748 20.0952 15.9008 20.6961 16.3312 21.2209C16.7205 21.6802 17.1959 22.0602 17.7312 22.3403C18.2573 22.5772 18.8275 22.7031 19.4053 22.71C19.9462 22.7016 20.4797 22.5856 20.9743 22.3688C21.4854 22.083 21.939 21.7063 22.3124 21.2576C22.7332 20.7442 23.0534 20.1575 23.2567 19.5275H23.2525ZM25.0442 13.7835C25.3482 14.2685 25.5859 14.7912 25.7515 15.338C26.1435 16.7407 26.0558 18.2325 25.5019 19.5806C25.1728 20.3432 24.6998 21.0365 24.1082 21.6233C23.5269 22.2321 22.825 22.7154 22.0465 23.0429C21.2444 23.4617 20.3826 23.5434 19.4528 23.5434C18.5229 23.5434 17.6611 23.4617 16.8549 23.0613C16.0638 22.7254 15.3435 22.2452 14.7313 21.6458C14.1159 21.0685 13.625 20.3735 13.2881 19.6031C12.9342 18.8195 12.7555 17.9694 12.7644 17.111C12.7703 15.8267 13.1603 14.5728 13.8851 13.508C14.6098 12.4432 15.6368 11.6149 16.8364 11.128C17.6864 10.7829 18.5982 10.612 19.5167 10.6255C20.0589 10.6213 20.5992 10.69 21.1228 10.8298C21.6525 10.9702 22.1598 11.1834 22.6299 11.463C23.1212 11.7336 23.567 12.0782 23.9515 12.4843C24.3845 12.848 24.7514 13.2826 25.036 13.7692L25.0442 13.7835ZM37.5798 11.2383L38.9673 12.2228V16.3082C36.8004 16.3185 34.6788 16.3185 32.5758 16.3082V12.2228L33.9634 11.2526V11.128H29.1389V11.2526L30.4894 12.2228V21.9256L29.1389 22.9265V23.0756H33.9572V22.9245L32.5697 21.9235V17.2745C34.6809 17.254 36.8025 17.254 38.9611 17.2745V21.9256L37.5715 22.9265V23.0756H42.3918V22.9245L41.0249 21.9235C40.9858 18.8861 40.9858 15.6832 41.0249 12.2208L42.3918 11.2505V11.1259H37.5798V11.2383ZM147.096 8.13346C147.327 8.27031 147.562 8.44392 147.799 8.60123C148.036 8.75846 148.261 8.93415 148.467 9.09554C148.03 10.6705 147.602 12.0738 147.251 13.3668C146.9 14.6598 146.558 15.722 146.286 16.6575C146.014 17.5931 145.797 18.3325 145.626 18.9392C145.455 19.5459 145.36 19.9402 145.313 20.1648L141.968 9.24261C142.202 9.01177 142.42 8.79931 142.626 8.61546C142.825 8.44546 143.036 8.28915 143.257 8.14769V8.00677H137.932V8.16408L139.272 9.18538C138.901 10.3272 138.567 11.414 138.253 12.4701C137.95 13.4914 137.659 14.4535 137.392 15.3543C137.124 16.2552 136.88 17.0988 136.647 17.875C136.415 18.6512 136.212 19.3988 136.015 20.1076L132.843 9.212L134.142 8.14769V8.00677H129.005V8.14769C129.225 8.32138 129.417 8.46431 129.567 8.59708C129.696 8.69123 129.819 8.79285 129.936 8.90146C130.02 8.97054 130.096 9.04938 130.161 9.13638C130.225 9.20685 130.268 9.294 130.285 9.38762C130.454 9.90854 130.681 10.6418 130.998 11.5753C131.309 12.5578 131.655 13.6548 132.064 14.8702C132.472 16.0856 132.919 17.4174 133.379 18.8534C133.839 20.2894 134.305 21.7663 134.765 23.3473H136.455C136.438 23.2945 136.43 23.2394 136.431 23.1839C136.43 23.0835 136.442 22.9833 136.466 22.8857C136.486 22.7938 136.522 22.6814 136.542 22.5772C136.585 22.4869 136.618 22.3915 136.637 22.2933C136.783 21.7642 136.938 21.2005 137.097 20.5877C137.255 19.9748 137.437 19.3151 137.631 18.6471C137.825 17.9792 138.043 17.2805 138.218 16.5697C138.394 15.8588 138.616 15.1725 138.837 14.4718C139.058 13.7712 139.222 13.1278 139.426 12.4864C139.6 11.8042 139.802 11.2158 139.962 10.6786L143.968 23.3432H145.589C145.651 23.0797 145.775 22.5732 145.991 21.8092C146.208 21.0452 146.488 20.1138 146.855 18.9228C147.222 17.732 147.645 16.3572 148.129 14.7538C148.614 13.1502 149.16 11.2812 149.752 9.28961C150.094 8.95661 150.37 8.71762 150.595 8.51338C150.82 8.30908 150.945 8.18654 151.036 8.12323V8.00885H147.096V8.13346ZM158.921 17.7647L156.937 12.6988L155.082 17.7647H158.921ZM162.879 21.7581L164.268 22.9612V23.1104H158.962V22.9612L160.516 21.8051L159.262 18.6512C157.852 18.6362 156.341 18.6362 154.727 18.6512L153.575 21.8051L155.102 22.9612V23.1104H151.026V22.9612L152.428 21.8051L156.609 10.9033H158.343L162.879 21.7581ZM203.232 22.087C201.465 22.1585 199.819 22.1585 198.284 22.087C198.256 20.51 198.256 18.944 198.284 17.3888C199.176 17.3643 200.43 17.3479 202.092 17.3479L203.03 18.7125H203.17V15.0112H203.03L202.092 16.4022C199.925 16.4022 198.669 16.3818 198.257 16.3552C198.238 15.6832 198.224 14.9988 198.224 14.3125C198.224 13.6262 198.224 12.948 198.238 12.2065C198.982 12.1493 199.758 12.1392 200.58 12.1392C201.403 12.1392 202.277 12.1392 203.17 12.1392L204.155 13.52H204.288V11.1627H194.824V11.2873L196.187 12.2596C196.234 15.0438 196.234 18.259 196.187 21.9624L194.824 22.9572V23.1124H204.526V20.4569H204.384L203.232 22.087ZM213.478 17.0538C214.509 17.0538 215.302 16.8495 215.839 16.3818C216.378 15.914 216.664 15.291 216.664 14.4555C216.665 14.1403 216.603 13.828 216.482 13.5363C216.368 13.248 216.189 12.9894 215.959 12.7805C215.718 12.5408 215.428 12.3543 215.109 12.2331C214.759 12.1007 214.385 12.0368 214.011 12.0452H213.709C213.565 12.0452 213.417 12.0452 213.244 12.0656C213.071 12.086 212.872 12.0656 212.681 12.0819C212.489 12.0983 212.299 12.1105 212.141 12.1105L212.12 17.0293C212.229 17.0424 212.34 17.0472 212.45 17.0436C212.553 17.0436 212.697 17.0436 212.839 17.0558H213.483L213.478 17.0538ZM219.734 22.7611C219.812 22.8416 219.902 22.9104 220 22.9653V23.1165H217.248L214.423 18.3958C214.322 18.2275 214.181 18.087 214.011 17.9873C213.82 17.9195 213.619 17.885 213.417 17.8852H212.895C212.652 17.8852 212.396 17.9077 212.108 17.9219L212.153 22.0195L213.515 22.9612V23.1124H208.58V22.9612L210.023 21.9644V12.3046L208.66 11.2832V11.1627H214.272C214.933 11.1492 215.592 11.2268 216.231 11.3935C216.77 11.5272 217.281 11.7533 217.74 12.0615C218.13 12.3425 218.458 12.6982 218.707 13.1074C218.934 13.5008 219.055 13.9452 219.06 14.3983C219.056 14.8251 218.951 15.2449 218.752 15.6239C218.55 15.9972 218.268 16.3232 217.928 16.5799C217.558 16.8679 217.139 17.0885 216.691 17.2315C216.179 17.3929 215.648 17.4857 215.112 17.5073C215.476 17.5402 215.829 17.6547 216.142 17.8423C216.432 18.0611 216.668 18.34 216.837 18.6594L218.74 21.5804C218.827 21.7105 218.926 21.8317 219.037 21.9419C219.148 22.0849 219.268 22.2606 219.394 22.4118C219.519 22.5242 219.649 22.6508 219.755 22.759L219.734 22.7611ZM185.167 16.1877C186.218 15.2011 187.115 14.3656 187.847 13.6998C188.578 13.0338 189.125 12.5599 189.511 12.2311L191.332 11.2853V11.1668H187.269V11.2853L187.888 12.2127C187.465 12.6702 187.022 13.0808 186.599 13.5057C186.177 13.9305 185.728 14.3125 185.298 14.7068C184.87 15.101 184.474 15.4789 184.078 15.8262C183.682 16.1734 183.307 16.5186 182.948 16.7924C184.344 18.1773 185.935 19.9034 187.792 22.0195L187.268 22.9592V23.1083H191.655V22.9592L190.721 22.0195C188.115 19.3641 186.27 17.4419 185.154 16.1877H185.167ZM182.956 12.2596L184.367 11.2853V11.1668H179.464V11.2853L180.853 12.2596C180.874 15.4809 180.874 18.69 180.853 21.9624L179.41 22.9592V23.1104H184.387V22.9592L182.944 21.9624C182.923 18.6573 182.923 15.4422 182.944 12.2596H182.956ZM175.075 22.0338H172.676C171.914 22.0338 171.233 22.0216 170.615 22.0216C170.573 18.7247 170.573 15.5034 170.615 12.2596L172.141 11.3098V11.1729H167.124V11.3098L168.499 12.2596C168.545 15.4809 168.545 18.6818 168.499 21.9624L167.124 22.9592V23.1104H176.371V20.4426H176.192L175.075 22.0338ZM107.388 19.0188C107.17 18.8371 106.976 18.4326 106.976 17.877C107.002 17.3123 107.148 16.7595 107.406 16.2552C107.664 15.7509 108.027 15.3066 108.472 14.9519C109.634 14.0878 110.702 14.047 111.04 13.9305C110.349 13.9469 109.952 13.522 110.009 13.2545C110.024 13.1829 110.248 13.3995 110.628 13.4199C111.137 13.4444 111.512 13.2687 112.127 12.8643C112.302 12.7478 112.376 12.8275 112.354 12.9828C112.746 12.5336 112.997 11.9804 113.075 11.3915C113.263 11.6999 113.807 11.8532 114.143 11.9287C114.38 11.9818 115.316 12.1779 115.477 12.1779C115.397 12.1268 114.609 11.8327 114.24 11.6999C114.034 11.6285 113.857 11.5611 113.716 11.4957C113.592 11.4457 113.475 11.3805 113.368 11.3016C113.341 11.2815 113.315 11.2597 113.292 11.2362C113.261 11.2077 113.225 11.175 113.192 11.1402C112.706 10.5589 112.291 9.92269 111.955 9.24461C111.665 8.69869 111.469 8.10831 111.376 7.49815C111.35 7.37235 111.335 7.24455 111.331 7.11617C111.322 6.96811 111.329 6.81958 111.352 6.67291C111.366 6.58658 111.398 6.50394 111.445 6.42983C111.467 6.38869 111.495 6.35031 111.527 6.31544C111.598 6.23326 111.685 6.16414 111.78 6.11117C111.803 6.10011 111.828 6.09385 111.852 6.09279C111.927 6.09279 111.718 6.29705 111.646 6.69538C111.508 7.37151 112.09 7.921 112.283 8.12523C113.065 8.95462 113.521 9.165 113.904 9.70631C113.97 9.80023 113.904 9.81661 113.797 9.81661H113.749C113.558 9.79415 113.302 9.67362 113.391 9.79008C113.471 9.89046 113.57 9.97377 113.684 10.0349C113.797 10.096 113.922 10.1336 114.05 10.1455L114.135 10.1618C114.229 10.1781 114.322 10.2013 114.413 10.2312C114.461 10.2496 114.502 10.2639 114.547 10.2844L114.642 10.3334C114.683 10.3514 114.721 10.3748 114.755 10.4028C114.778 10.4233 114.768 10.4417 114.685 10.4417H114.547H114.475C114.362 10.4518 114.238 10.4642 114.139 10.4662C114.063 10.4703 113.986 10.4703 113.91 10.4662C113.824 10.4655 113.738 10.4538 113.655 10.4315C113.343 10.3456 113.012 10.1945 113.242 10.3926C113.269 10.4172 113.294 10.4396 113.321 10.4601C113.467 10.6068 113.662 10.6978 113.869 10.7174C113.946 10.7223 114.024 10.7175 114.1 10.7032C114.174 10.6908 114.248 10.6725 114.368 10.65C114.492 10.627 114.618 10.6113 114.745 10.603C114.984 10.581 115.224 10.5934 115.458 10.6398C115.483 10.6452 115.508 10.6452 115.533 10.6398C115.595 10.6194 115.553 10.4968 115.397 10.4355C115.322 10.4073 115.245 10.3848 115.168 10.3682C115.012 10.3445 114.868 10.273 114.755 10.1638L114.735 10.1435C114.711 10.1112 114.684 10.0811 114.655 10.0535C114.614 10.0174 114.566 9.98961 114.515 9.97185L114.471 9.95346L114.438 9.93508C114.4 9.90831 114.368 9.87338 114.345 9.83292C114.326 9.78992 114.31 9.74554 114.298 9.70015C114.275 9.61908 114.245 9.53992 114.209 9.46323C113.906 8.95046 113.7 8.41123 113.267 7.90461C113.037 7.68428 112.821 7.45031 112.619 7.20401C112.545 7.06715 112.471 6.73419 112.562 6.72193C112.743 6.69742 113.273 7.67791 113.362 7.75554C113.409 7.79431 113.316 7.45935 113.258 7.26733C113.211 7.12674 113.152 6.99013 113.082 6.85879C112.981 6.66638 112.84 6.49721 112.669 6.36242C112.56 6.28695 112.447 6.21872 112.328 6.15815C112.267 6.11935 112.355 6.03559 112.677 6.21331C112.895 6.33382 112.995 6.34608 113.03 6.32565C112.871 6.13634 112.653 6.00365 112.412 5.94776C112.318 5.90691 112.745 5.71081 113.203 5.75779C113.579 5.80514 113.952 5.87334 114.321 5.96205C114.515 6.00495 114.343 5.82315 114.182 5.71489C113.985 5.60577 113.783 5.5069 113.576 5.4187C113.543 5.37785 113.988 5.39011 114.236 5.4187C114.397 5.44321 114.3 5.34312 114.094 5.2655C113.918 5.19809 113.708 5.20014 113.758 5.15724C113.83 5.12072 113.894 5.07027 113.945 5.00888C113.998 4.94748 114.037 4.87638 114.061 4.79977C114.121 4.56078 114.061 4.49542 114.092 4.45252C114.122 4.40962 114.418 4.73849 114.933 5.34517C115.462 5.98125 115.903 6.68475 116.244 7.43687C116.637 8.30469 116.885 9.22969 116.98 10.1761C116.98 10.1761 117.003 10.2395 117.061 10.1251C117.318 9.68792 117.525 8.69515 117.642 8.064C117.667 7.85808 117.615 7.65028 117.495 7.47977C117.488 7.46705 117.48 7.45478 117.471 7.443C117.31 7.23873 117.435 7.02016 117.455 6.76892C117.473 6.51767 117.273 6.46252 117.207 6.34608C117.092 6.14182 117.126 6.07236 117.126 6.07236C117.172 6.07236 117.3 6.05194 117.564 6.03968C117.79 6.02633 118.014 6.09211 118.197 6.22556C118.326 6.33587 118.481 6.68925 118.858 6.66474C118.966 6.66474 119.072 6.68945 119.169 6.73693C119.265 6.78441 119.35 6.85338 119.415 6.93846C119.483 7.03277 119.573 7.10976 119.677 7.16315C119.639 7.20409 119.609 7.25206 119.591 7.3043C119.572 7.35654 119.563 7.41201 119.565 7.46751C119.578 7.5704 119.621 7.66728 119.689 7.74531C119.725 7.79023 119.755 7.80661 119.765 7.74531C119.768 7.72769 119.768 7.70985 119.765 7.69221C119.762 7.63645 119.762 7.58046 119.765 7.52471C119.782 7.34291 119.858 7.32044 119.908 7.35312C119.934 7.37753 119.954 7.40762 119.965 7.44096C119.982 7.4716 119.998 7.50632 120.017 7.53696C120.05 7.59566 120.088 7.65107 120.132 7.70238C120.151 7.72561 120.171 7.74746 120.192 7.76777C120.38 7.93623 120.602 8.06423 120.842 8.14361C120.899 8.16 120.925 8.14361 120.892 8.12323C120.502 7.84946 120.422 7.80454 120.325 7.66565C120.299 7.63093 120.244 7.54718 120.222 7.50632C120.198 7.46547 120.157 7.36946 120.099 7.25916C120.152 7.25018 120.202 7.22765 120.244 7.19379C120.287 7.16315 120.293 7.13864 120.268 7.1223C120.21 7.10266 120.148 7.09843 120.087 7.11005C120.055 7.11413 120.024 7.11413 119.992 7.11005H119.964C119.94 7.1083 119.916 7.10419 119.893 7.09778H119.86C119.692 6.96705 119.574 7.00178 119.502 6.89352C119.429 6.78525 119.582 6.84449 119.689 6.773C119.796 6.70151 119.557 6.4237 119.483 6.54626C119.374 6.72602 119.331 6.51971 119.341 6.40123C119.36 6.28864 119.345 6.17295 119.299 6.06828L119.289 6.04785C119.275 6.00495 119.351 5.96614 119.388 5.95185C119.425 5.93755 119.438 5.95185 119.456 5.97635C119.494 6.0234 119.539 6.06351 119.59 6.09483H119.605C119.605 6.09483 119.605 6.09483 119.622 6.09483H119.634C119.661 6.10475 119.689 6.1116 119.718 6.11525H119.743C119.783 6.11822 119.824 6.11822 119.865 6.11525C119.891 6.11378 119.917 6.10755 119.941 6.09688L120.001 6.07031C120.031 6.05439 120.058 6.03209 120.079 6.00495C120.089 5.98248 120.114 5.93346 120.065 5.91099C120.041 5.90678 120.016 5.90678 119.992 5.91099C119.938 5.91398 119.884 5.91398 119.829 5.91099H119.801C119.779 5.90813 119.759 5.89887 119.743 5.88444L119.693 5.80682C119.675 5.78345 119.655 5.76158 119.634 5.74145C119.524 5.6481 119.402 5.56978 119.271 5.50858C119.125 5.43797 118.986 5.35238 118.858 5.25325C118.792 5.18761 118.742 5.10707 118.712 5.01834C118.662 4.90803 118.623 4.79773 118.57 4.70581C118.516 4.61388 118.425 4.55261 118.483 4.51379C118.541 4.47498 118.689 4.51379 118.765 4.58938C118.795 4.62452 118.821 4.66211 118.844 4.70172C118.844 4.70172 118.858 4.70172 118.865 4.70172C118.875 4.63064 118.88 4.55901 118.881 4.48724C118.894 4.39065 118.928 4.29795 118.98 4.21556C118.992 4.21556 118.98 4.28706 118.959 4.36264C118.959 4.38919 118.959 4.41371 118.945 4.43618C118.944 4.44501 118.944 4.4539 118.945 4.46273C118.942 4.4919 118.942 4.52139 118.945 4.55056C118.974 4.68742 119.005 4.92641 119.011 4.9591C119.017 4.99178 119.046 5.04898 119.108 5.03876C119.17 5.02855 119.248 4.91621 119.248 4.91621C119.252 4.92932 119.26 4.94078 119.272 4.94888C119.282 4.95699 119.296 4.96129 119.31 4.96115C119.32 4.96095 119.331 4.95868 119.34 4.95447C119.35 4.95025 119.358 4.94419 119.365 4.93663C119.394 4.89913 119.412 4.85582 119.422 4.80998C119.422 4.78547 119.422 4.76505 119.422 4.74666C119.422 4.72828 119.45 4.72215 119.458 4.70376L119.483 4.64453C119.494 4.60926 119.494 4.57154 119.483 4.53626C119.478 4.52204 119.47 4.50887 119.461 4.49745C119.405 4.43413 119.362 4.47907 119.362 4.47907C119.375 4.42482 119.375 4.36786 119.362 4.31361C119.343 4.23803 119.246 4.26459 119.246 4.26459C119.257 4.22033 119.257 4.17403 119.246 4.12977C119.232 4.05419 119.205 4.00517 119.141 4.00925C119.118 4.01203 119.096 4.01752 119.075 4.02559V4.01334C119.118 3.94593 119.442 3.96023 119.504 3.96432C119.541 3.96497 119.576 3.97719 119.605 3.99923C119.635 4.02126 119.656 4.05196 119.667 4.08688C119.685 4.13385 119.705 4.17879 119.722 4.21148C119.65 4.21148 119.578 4.21148 119.553 4.21148C119.528 4.21148 119.578 4.24212 119.692 4.25438H119.765C119.795 4.26315 119.821 4.27812 119.844 4.29825C119.866 4.31837 119.884 4.34315 119.895 4.37081C119.932 4.53338 119.982 4.69259 120.046 4.84675C120.081 4.92313 120.12 4.99747 120.163 5.06941C120.21 5.11375 120.247 5.16735 120.271 5.22669C120.281 5.25529 120.293 5.2941 120.31 5.34925C120.326 5.40441 120.362 5.45138 120.392 5.46365L120.45 5.48407C120.467 5.48738 120.482 5.49555 120.495 5.50755C120.506 5.51955 120.515 5.53484 120.518 5.55148V5.56169C120.518 5.57191 120.518 5.58212 120.528 5.59233C120.549 5.63932 120.572 5.64748 120.605 5.6434C120.634 5.63398 120.665 5.62983 120.695 5.63115C120.889 5.65157 120.885 5.76596 120.902 5.9212C120.902 5.93958 120.902 5.96614 120.92 5.99474C121.026 6.24728 121.172 6.48168 121.351 6.68925C121.763 7.16519 122.227 7.874 122.175 8.17023C122.147 8.34792 121.795 8.53377 121.625 8.593C121.456 8.65223 120.512 8.70738 119.458 8.55423C118.889 8.49031 118.328 8.37823 117.778 8.21923C117.724 8.73931 117.638 9.25569 117.52 9.76554C117.413 10.1741 117.211 10.8093 117.145 11.0953C117.119 11.0899 117.094 11.0831 117.068 11.0749L116.962 11.0382L116.695 10.9544C116.543 10.9118 116.387 10.8804 116.23 10.8604C115.981 10.8259 115.73 10.8116 115.479 10.8175C115.325 10.8217 115.172 10.8422 115.022 10.8788C114.772 10.938 114.856 11.0422 115.292 11.0831C115.542 11.1025 115.794 11.0943 116.042 11.0585C116.148 11.0512 116.254 11.0512 116.359 11.0585C116.502 11.0672 116.645 11.0877 116.785 11.1198C116.838 11.1301 117.102 11.2118 117.102 11.2118L117.209 11.2403C117.494 11.318 117.607 11.3506 117.858 11.4017C117.931 11.416 118.003 11.4303 118.065 11.4405L118.228 11.4589C118.345 11.4712 118.455 11.4793 118.549 11.4835C118.642 11.4925 118.736 11.4925 118.829 11.4835C118.852 11.4784 118.874 11.4784 118.895 11.4835C118.92 11.4957 118.916 11.5202 118.895 11.5528C118.869 11.5784 118.839 11.6003 118.807 11.6182L118.681 11.6836L118.538 11.7572C118.447 11.8058 118.358 11.8611 118.275 11.9226C118.172 12.0138 118.092 12.128 118.042 12.2559C117.992 12.3838 117.974 12.5216 117.988 12.658C118.035 12.9705 118.292 12.8868 118.242 13.0277C118.226 13.0745 118.194 13.1142 118.152 13.1393C118.108 13.1645 118.058 13.1735 118.009 13.1645C117.891 13.1479 117.773 13.1233 117.658 13.091C117.679 12.9868 117.765 12.9317 117.591 12.7968C117.483 12.7132 117.228 12.6968 117.355 12.8888C117.383 12.9332 117.415 12.9749 117.45 13.0134C117.45 13.0134 117.462 13.0256 117.45 13.0277H117.435L117.388 13.0114C117.077 12.8827 117.067 12.9215 116.976 12.8071C116.95 12.7735 116.93 12.7354 116.918 12.6948C116.909 12.6612 116.895 12.6293 116.875 12.6008C116.865 12.5832 116.849 12.5698 116.831 12.563C116.812 12.5562 116.791 12.5565 116.772 12.564C116.745 12.5802 116.722 12.5995 116.7 12.6212C116.663 12.6478 116.62 12.6642 116.575 12.6689C116.529 12.6735 116.484 12.6662 116.442 12.6478C116.423 12.6399 116.403 12.6344 116.382 12.6314C116.409 12.6478 116.665 12.7683 116.871 12.8643C116.834 13.1278 116.747 13.6814 116.665 13.7488C116.522 13.8713 116.232 13.2503 116.149 13.0645C116.148 13.0577 116.148 13.0508 116.149 13.044L116.12 13.1012C116.104 13.1318 116.085 13.1645 116.065 13.1972C115.956 13.3575 115.829 13.5043 115.685 13.6344C115.471 13.5966 115.254 13.5795 115.036 13.5833C113.776 13.5833 112.355 14.3738 111.818 14.5597C111.747 14.586 111.678 14.616 111.612 14.6496C111.955 14.6274 112.293 14.5586 112.618 14.4453C112.863 14.3636 112.978 14.3248 113.455 14.1492L113.58 14.1062L113.495 14.2002C113.218 14.4964 113.071 14.7885 112.382 15.2338C112.011 15.4661 111.611 15.6514 111.193 15.7853C111.135 15.8058 111.075 15.82 111.019 15.8384C109.492 16.296 108.698 16.2469 107.927 16.6841C107.448 16.9496 107.234 17.3602 107.285 17.7463C107.305 17.5847 107.359 17.4293 107.445 17.2912C107.532 17.1531 107.648 17.0357 107.787 16.9476C108.242 16.6777 108.748 16.5025 109.273 16.4328C108.599 16.8945 107.325 17.8218 107.436 19.0128C107.436 19.0372 107.426 19.0475 107.393 19.0128L107.388 19.0188ZM116.198 9.82069C116.159 9.83685 116.127 9.86646 116.108 9.90431C116.088 9.94208 116.084 9.98538 116.095 10.0264C116.105 10.0674 116.13 10.1032 116.165 10.1273C116.2 10.1515 116.243 10.1622 116.285 10.1577C116.325 10.1416 116.357 10.1119 116.376 10.0742C116.395 10.0363 116.4 9.993 116.389 9.952C116.379 9.91108 116.354 9.87523 116.318 9.85108C116.284 9.827 116.241 9.81615 116.198 9.82069ZM115.97 9.14454C116.01 9.12977 116.042 9.10023 116.061 9.06215C116.079 9.02408 116.082 8.98038 116.068 8.94031C116.057 8.91423 116.038 8.892 116.015 8.87623C115.99 8.86046 115.962 8.85185 115.934 8.85138C115.905 8.85092 115.876 8.85861 115.852 8.87361C115.828 8.88861 115.808 8.91023 115.795 8.93592C115.783 8.96161 115.778 8.99031 115.782 9.01861C115.785 9.04692 115.797 9.07362 115.815 9.09561C115.834 9.11754 115.858 9.13385 115.885 9.14254C115.913 9.15115 115.942 9.15192 115.97 9.14454ZM114.279 6.75666C114.258 6.81181 114.968 7.26528 115.57 7.88015C115.776 8.08438 115.941 8.30908 115.995 8.36831C115.995 8.36831 116.155 8.55215 115.98 8.20285C115.825 7.95331 115.64 7.72408 115.428 7.52062C115.028 7.11208 114.716 6.85675 114.689 6.8159C114.642 6.73623 114.945 6.4952 114.883 6.47681C114.668 6.53627 114.464 6.63084 114.279 6.75666ZM115.644 4.87331C115.607 4.83197 115.565 4.79558 115.518 4.76505C115.492 4.76505 115.145 4.96932 115.337 4.9591H115.347C115.419 4.94685 115.525 4.92846 115.603 4.91825C115.625 4.91825 115.665 4.90395 115.644 4.87331ZM117.232 7.52879C117.258 7.35517 116.947 7.37355 116.991 7.49202C117.034 7.6105 117.05 7.65748 117.05 7.65748C117.071 7.66424 117.093 7.66606 117.115 7.66282C117.136 7.65957 117.156 7.65135 117.174 7.6388C117.192 7.62626 117.206 7.60976 117.216 7.59065C117.226 7.57153 117.232 7.55034 117.232 7.52879ZM114.166 1.88895C114.166 2.17084 114.578 2.29748 114.798 2.30975C114.855 2.30975 114.959 2.30975 115.005 2.3363C115.028 2.40371 114.968 2.49562 114.725 2.46295C114.684 2.45445 114.641 2.45541 114.6 2.46574C114.56 2.47607 114.522 2.49549 114.49 2.52252C114.458 2.54955 114.433 2.58347 114.417 2.62165C114.4 2.65985 114.392 2.70128 114.395 2.74279C114.376 3.02877 114.504 3.23304 114.485 3.36989C114.473 3.47611 114.395 3.4802 114.353 3.48837C114.326 3.48869 114.3 3.49425 114.275 3.50471C114.24 3.52718 114.294 3.65178 114.386 3.67221C114.424 3.68263 114.463 3.68677 114.502 3.68447C114.591 3.68447 114.622 3.63748 114.708 3.63545C114.763 3.64094 114.817 3.65543 114.867 3.67834C114.951 3.71582 115.027 3.76847 115.092 3.83358C115.145 3.89691 115.182 4.00517 115.218 4.01334C115.252 4.02151 115.365 3.88874 115.341 3.87035C115.311 3.87231 115.282 3.867 115.254 3.8549C115.227 3.84279 115.203 3.82425 115.185 3.8009C115.147 3.73758 115.158 3.63953 115.116 3.53331C115.072 3.44959 115.042 3.35916 115.028 3.26572C115.025 3.22522 115.032 3.18478 115.048 3.14717C115.063 3.10956 115.086 3.0757 115.116 3.04792C115.146 3.02014 115.182 2.9991 115.22 2.98627C115.259 2.97345 115.3 2.96912 115.341 2.97362C115.436 2.98995 115.473 3.1023 115.489 3.21056C115.482 3.19804 115.472 3.18708 115.461 3.17832C115.449 3.16955 115.435 3.16315 115.422 3.1595C115.406 3.15469 115.389 3.15405 115.373 3.15763C115.358 3.16122 115.342 3.16891 115.331 3.17992C115.312 3.20648 115.362 3.22895 115.385 3.24733C115.423 3.27885 115.454 3.31958 115.473 3.36581C115.492 3.40768 115.508 3.45151 115.518 3.49654C115.518 3.53535 115.518 3.55374 115.535 3.59255C115.552 3.70285 115.553 3.71715 115.578 3.73145C115.603 3.74575 115.801 3.90508 115.868 3.90099C115.937 3.89691 115.958 3.88874 115.941 3.87035C115.861 3.73557 115.835 3.57552 115.871 3.42301C115.888 3.35354 115.91 3.2853 115.937 3.21874C115.949 3.18401 116.007 3.17584 116.065 3.18197C116.118 3.18666 116.17 3.20268 116.217 3.22895L116.292 3.27388C116.326 3.2984 116.359 3.32292 116.355 3.34334C116.353 3.35394 116.348 3.36378 116.341 3.37194C116.341 3.37194 116.327 3.41075 116.341 3.41483C116.364 3.43547 116.388 3.45458 116.413 3.47203L116.432 3.49245C116.442 3.50612 116.448 3.52133 116.452 3.53739C116.452 3.57008 116.467 3.58029 116.516 3.60888C116.625 3.64858 116.741 3.6646 116.856 3.65587C116.872 3.65794 116.887 3.65794 116.902 3.65587C116.952 3.65587 117.077 3.66812 117.108 3.70081C117.138 3.81483 117.144 3.93381 117.125 4.05011C117.128 4.14125 117.121 4.23255 117.102 4.32178C117.095 4.34238 117.081 4.3601 117.062 4.37227C117.045 4.38443 117.022 4.39038 117.001 4.38919C116.962 4.38413 116.924 4.38413 116.885 4.38919C116.844 4.38919 116.823 4.46068 116.807 4.52401C116.799 4.55416 116.784 4.58211 116.764 4.60572C116.747 4.61907 116.731 4.63339 116.716 4.64861C116.689 4.68042 116.672 4.71961 116.668 4.76096C116.666 4.79213 116.657 4.82228 116.64 4.84879C116.625 4.86431 116.61 4.88068 116.597 4.89782C116.552 4.95627 116.533 5.02966 116.543 5.10208C116.545 5.13602 116.538 5.16986 116.523 5.20054C116.508 5.23122 116.486 5.25775 116.458 5.27776C116.404 5.30769 116.342 5.32201 116.28 5.31913C116.218 5.31625 116.158 5.29626 116.106 5.26142C116.052 5.22873 115.998 5.19401 115.943 5.15315C115.943 5.15315 115.922 5.1409 115.916 5.15315C115.91 5.16541 115.939 5.20422 116.003 5.27163C116.035 5.30698 116.07 5.33913 116.108 5.36764C116.419 5.57191 116.698 5.55148 116.747 5.36764C116.778 5.23895 116.926 5.11638 117.106 4.85901C117.285 4.60163 117.407 4.56486 117.538 4.2605C117.587 4.09744 117.615 3.92956 117.625 3.76005C117.473 3.70878 117.333 3.62748 117.213 3.52105C117.121 3.43677 117.037 3.34448 116.962 3.24529C116.831 3.04876 116.687 2.8611 116.531 2.68355C116.444 2.60905 116.352 2.54078 116.255 2.47928C116.215 2.45068 116.195 2.42413 116.211 2.41188C116.228 2.39962 116.255 2.41188 116.328 2.43435C116.626 2.53948 116.888 2.7257 117.083 2.97157C117.213 3.13703 117.252 3.25346 117.374 3.39849C117.462 3.51077 117.577 3.60041 117.708 3.65995C117.966 3.77407 118.253 3.81098 118.532 3.76618C118.726 3.71306 118.79 3.65382 118.778 3.59459C118.795 3.6133 118.812 3.63103 118.832 3.6477C118.858 3.67425 118.887 3.69877 118.916 3.72328L118.949 3.73962C118.992 3.75596 119.038 3.73962 119.048 3.75801C119.05 3.7699 119.048 3.78204 119.045 3.79341C119.041 3.80478 119.034 3.81505 119.025 3.82337C119.032 3.8403 119.039 3.85669 119.048 3.87239C119.062 3.90712 119.195 3.91938 119.195 3.91938C119.195 3.91938 119.359 3.93368 119.353 3.91938C119.347 3.90508 119.365 3.88669 119.229 3.6763C119.092 3.55767 118.948 3.44717 118.798 3.34538C118.731 3.29636 118.671 3.34538 118.683 3.41892C118.689 3.45963 118.704 3.4986 118.726 3.53331C118.637 3.47418 118.535 3.4345 118.429 3.41688C118.255 3.40404 118.091 3.33188 117.964 3.21261C117.935 3.19218 117.938 3.17175 117.938 3.17175C118.092 2.91028 118.269 2.66343 118.468 2.43435C118.693 2.21169 118.916 2.06054 118.962 1.91959C119.007 1.77865 118.755 0.977915 117.858 0.489714C116.962 0.00151309 116.314 -0.0393404 116.077 0.0219399C115.84 0.0832208 115.807 0.199653 115.798 0.332428C115.786 0.555991 115.759 0.778469 115.716 0.998338C115.676 1.12271 115.648 1.25064 115.634 1.38032C115.648 1.43796 115.68 1.48994 115.725 1.52944C115.772 1.58868 116.203 1.93798 116.292 2.07279C116.38 2.20761 116.225 2.15042 116.139 2.08709C115.945 1.95644 115.738 1.84686 115.52 1.76026C115.263 1.65378 114.988 1.59426 114.71 1.58459C114.462 1.58459 114.155 1.69489 114.155 1.88895H114.166ZM116.629 5.80885C116.629 5.84358 116.601 5.81907 116.582 5.80885C116.554 5.78012 116.518 5.75962 116.479 5.74962C116.392 5.73532 116.328 5.83337 116.223 5.72715C116.017 5.50245 115.762 5.35334 115.737 5.47794C115.713 5.57112 115.713 5.66869 115.737 5.76188C115.786 6.00699 115.842 6.23373 115.842 6.23373C115.842 6.23373 115.867 6.32565 115.988 6.2705C116.067 6.23478 116.15 6.21003 116.236 6.19697C116.265 6.19697 116.295 6.24599 116.337 6.27867C116.365 6.30318 116.398 6.31991 116.435 6.32709C116.471 6.33428 116.508 6.33167 116.543 6.31952C116.592 6.2991 116.638 6.24599 116.648 6.25212C116.768 6.30932 117.032 6.51767 116.958 6.30318C116.916 6.2136 116.896 6.11565 116.899 6.01708C116.902 5.91851 116.928 5.82205 116.976 5.73532C117.017 5.67404 117.048 5.60255 117.005 5.59028C116.934 5.59588 116.865 5.61243 116.798 5.63932C116.734 5.66249 116.676 5.70191 116.632 5.7537C116.623 5.77472 116.623 5.79805 116.632 5.81907L116.629 5.80885ZM117.176 8.29069C117.224 8.28085 117.268 8.25546 117.3 8.21854C117.332 8.18154 117.351 8.13515 117.353 8.08646C117.353 7.923 117.098 7.97615 117.147 8.08646C117.176 8.15038 117.188 8.22092 117.18 8.29069H117.176ZM119.106 4.59142C119.106 4.61388 119.138 4.56486 119.158 4.50154C119.176 4.43822 119.198 4.36877 119.178 4.37081C119.158 4.37285 119.151 4.37081 119.126 4.42392C119.109 4.47804 119.102 4.53481 119.106 4.59142ZM116.048 4.39941C116.075 4.39941 116.075 4.35242 116.135 4.31361C116.195 4.2748 116.285 4.2605 116.246 4.24621C116.189 4.23388 116.13 4.23813 116.075 4.25846C116.015 4.29523 116.022 4.39328 116.048 4.39941ZM109.694 24.1542C109.855 24.1787 109.807 24.1971 109.752 24.2685C109.696 24.3401 109.523 24.5075 109.228 24.8712C109.022 25.1388 108.118 26.301 107.855 26.9138C107.751 27.1292 107.681 27.3594 107.648 27.5961C107.648 27.6104 107.648 27.6206 107.648 27.6308C107.628 27.6122 107.604 27.5964 107.578 27.5838C107.548 27.5692 107.514 27.5629 107.48 27.5658C107.447 27.5687 107.415 27.5805 107.387 27.6002C107.3 27.6492 107.337 27.7023 107.457 27.7248C107.576 27.7472 107.548 27.8596 107.64 27.8105C107.657 27.804 107.671 27.7928 107.681 27.7782C107.691 27.7636 107.696 27.7465 107.696 27.7288C107.696 27.7085 107.696 27.7288 107.696 27.7288C107.718 27.7595 107.735 27.7933 107.748 27.8289C107.757 27.8733 107.748 27.9195 107.724 27.9577C107.699 27.9958 107.66 28.023 107.615 28.0332H107.605C107.598 28.3604 107.647 28.6863 107.749 28.9974C107.832 29.2552 107.958 29.4971 108.123 29.7123C108.319 29.8228 108.503 29.9535 108.672 30.1025C108.719 30.1554 108.749 30.2216 108.758 30.2922C108.766 30.3627 108.752 30.4342 108.718 30.4967C108.718 30.4967 108.82 30.5315 108.748 30.6846C108.725 30.7336 108.63 30.7582 108.391 30.7684C107.998 30.7778 107.608 30.7083 107.245 30.5641C106.805 30.3885 106.648 30.2638 106.463 29.8492C106.278 29.4345 106.121 29.0198 106.121 29.0198H105.842C105.762 28.8901 105.692 28.7533 105.636 28.6113C105.557 28.4075 105.557 28.1818 105.636 27.9781L105.659 27.927C105.646 27.7692 105.678 27.6108 105.75 27.4695C105.75 27.4552 105.75 27.4695 105.75 27.4695C105.776 27.5798 105.89 27.639 105.956 27.5634C106.023 27.4765 106.101 27.3976 106.187 27.3285C106.312 27.2488 106.292 27.1998 106.242 27.1569C106.209 27.1365 106.172 27.1228 106.134 27.1168C106.095 27.1109 106.055 27.1127 106.018 27.1222C106.003 27.1222 106.018 27.1222 106.018 27.1099L106.127 27.0098C106.181 26.9396 106.223 26.8618 106.253 26.779C106.322 26.5858 106.378 26.3878 106.418 26.1866C106.505 25.7965 106.733 25.0182 106.855 24.6853C107.01 24.2834 107.218 23.9035 107.473 23.5557C107.521 23.4944 107.506 23.5761 107.537 23.6292C107.558 23.6653 107.586 23.6966 107.62 23.7212C107.64 23.7375 107.768 23.8172 107.745 23.8621C107.578 24.0957 107.431 24.3423 107.305 24.5995C107.197 24.8222 106.756 25.8516 106.685 26.4604C106.615 27.0691 106.737 26.7259 106.797 26.5032C106.857 26.2806 107.112 25.6269 107.259 25.2776C107.405 24.9284 107.848 24.1868 107.918 24.0521C107.988 23.9172 108.018 23.9642 108.085 23.9928C108.27 24.0628 108.462 24.1142 108.657 24.146C108.999 24.1789 109.345 24.1789 109.688 24.146L109.694 24.1542ZM106.647 29.3732C106.75 29.2548 106.712 29.075 106.564 28.885C106.415 28.6951 106.278 28.6256 106.267 28.4765C106.257 28.3274 106.267 28.1497 106.158 28.2436C106.158 28.2436 106.117 28.262 106.118 28.4663C106.121 28.6705 106.325 28.8748 106.387 29.0198C106.448 29.1648 106.544 29.4938 106.647 29.3773V29.3732ZM107.529 29.9534C107.512 29.9213 107.488 29.8936 107.458 29.8723C107.428 29.8511 107.394 29.8368 107.358 29.8308C107.247 29.8308 107.105 29.9125 107.215 29.9983C107.327 30.0841 107.496 30.0963 107.602 30.1617C107.662 30.2011 107.735 30.2191 107.808 30.2128C107.825 30.2164 107.842 30.2164 107.859 30.2128C107.875 30.2128 107.872 30.1944 107.859 30.1862C107.805 30.1723 107.752 30.1518 107.702 30.1249C107.638 30.0845 107.585 30.0292 107.548 29.9635L107.529 29.9534ZM107.181 29.745C107.358 29.745 107.482 29.6551 107.323 29.6204C107.27 29.6081 107.215 29.6073 107.161 29.6182C107.108 29.6292 107.058 29.6515 107.014 29.6837C106.902 29.7858 106.927 29.8389 106.972 29.8369C107.073 29.8369 107.065 29.745 107.178 29.745H107.181ZM119.235 13.0358C119.367 13.0275 119.495 12.9985 119.617 12.9501C119.747 12.8704 119.802 12.8582 119.885 12.803C119.916 12.7844 119.942 12.7588 119.962 12.7282C119.982 12.6978 119.993 12.6632 119.996 12.6273C119.996 12.5742 120.023 12.5558 120.105 12.5232C120.135 12.5122 120.162 12.4945 120.185 12.4714C120.206 12.4484 120.222 12.4206 120.232 12.3904C120.256 12.3291 120.271 12.278 120.271 12.278C120.271 12.278 120.295 12.229 120.396 12.2147C120.498 12.2004 120.628 12.1535 120.622 12.039C120.615 11.9688 120.599 11.8998 120.572 11.8348C120.547 11.8639 120.514 11.8846 120.477 11.8938C120.44 11.903 120.401 11.9002 120.365 11.8858C120.215 11.8307 120.118 11.7715 120.05 11.749C119.982 11.7265 119.868 11.7142 119.91 11.8001C119.951 11.8858 119.968 11.9246 119.91 11.9838C119.884 12.0039 119.856 12.0218 119.828 12.037C119.722 12.0819 119.693 12.1575 119.704 12.1943C119.712 12.2202 119.713 12.2481 119.706 12.2745C119.699 12.3009 119.685 12.3248 119.665 12.3434C119.609 12.3883 119.545 12.4435 119.549 12.5068C119.553 12.5702 119.532 12.6028 119.462 12.6518C119.392 12.7008 119.31 12.709 119.05 12.7315C118.909 12.7527 118.766 12.7314 118.638 12.6702C118.621 12.6619 118.602 12.6577 118.584 12.6578C118.565 12.658 118.547 12.6626 118.531 12.6712C118.514 12.6798 118.5 12.6922 118.489 12.7072C118.478 12.7223 118.472 12.7398 118.468 12.7581C118.468 12.8255 118.468 12.8459 118.541 12.8561C118.613 12.8663 118.619 12.9195 118.528 12.9378C118.438 12.9562 118.619 13.0604 118.708 13.0808H118.743C118.331 13.9448 113.347 23.7028 113.312 23.7906C113.307 23.8026 113.306 23.8162 113.311 23.8286C113.315 23.8411 113.323 23.8515 113.335 23.858C113.345 23.8676 113.359 23.873 113.373 23.873C113.387 23.873 113.401 23.8676 113.412 23.858C113.458 23.7906 119.235 13.0318 119.235 13.0318V13.0358ZM119.582 11.4487C119.562 11.5202 119.749 11.367 119.914 11.367C119.976 11.3715 120.036 11.3881 120.092 11.416L120.178 11.2546C120.299 11.2506 120.414 11.1989 120.497 11.111C120.58 11.0231 120.625 10.9062 120.62 10.7858C120.616 10.6656 120.564 10.5518 120.475 10.4697C120.386 10.3875 120.268 10.3436 120.147 10.3477C120.048 10.3482 119.952 10.3796 119.873 10.4375C119.873 10.4375 119.858 10.4518 119.892 10.4375C119.932 10.4219 119.977 10.4219 120.017 10.4375C120.06 10.4845 119.965 10.4988 119.962 10.5989C119.964 10.6164 119.96 10.634 119.951 10.6492C119.942 10.6643 119.928 10.6761 119.912 10.6827C119.895 10.6878 119.876 10.6886 119.858 10.685C119.84 10.6815 119.823 10.6737 119.808 10.6622C119.795 10.6512 119.784 10.6372 119.777 10.6212C119.769 10.6053 119.765 10.5879 119.765 10.5703C119.765 10.5499 119.765 10.5561 119.749 10.5703C119.705 10.6422 119.681 10.7249 119.681 10.8093C119.681 10.8941 119.705 10.9771 119.751 11.0483C119.685 11.1934 119.59 11.4099 119.576 11.4568L119.582 11.4487ZM124.078 27.8698C124.108 27.8698 124.233 27.9311 124.215 28.0169C124.025 28.5295 123.678 28.9698 123.221 29.2752C122.808 29.4998 122.19 29.5734 121.872 29.6837L121.685 29.7572L121.749 30.0698C121.625 30.1742 121.486 30.2602 121.337 30.3252C121.188 30.4017 121.031 30.4627 120.868 30.5069L120.598 30.2209C120.418 30.0649 120.264 29.8807 120.143 29.6755C120.111 29.6182 120.085 29.558 120.065 29.4958C120.048 29.4587 120.033 29.4205 120.022 29.3814C119.959 29.2037 119.951 29.1097 119.931 29.0586C119.91 29.0076 119.815 28.9504 119.782 28.8544C119.765 28.8083 119.765 28.7575 119.782 28.7114C119.782 28.6828 119.808 28.6562 119.822 28.6276C119.892 28.4683 119.762 28.4622 119.725 28.454C119.698 28.4433 119.674 28.4273 119.654 28.407C119.629 28.3715 119.612 28.3313 119.602 28.2888C119.593 28.2464 119.592 28.2025 119.601 28.1598C119.562 28.0986 119.514 28.0312 119.461 27.9556L119.368 27.8392C118.977 27.4027 118.622 26.9369 118.304 26.4461C118.028 26.0448 117.812 25.6067 117.662 25.1448C117.662 25.1448 117.815 25.0571 117.868 25.0305C117.922 25.0039 118.003 25.0305 118.062 25.1245C118.08 25.1541 118.094 25.1856 118.104 25.2184C118.105 25.2306 118.105 25.2429 118.104 25.2552C118.151 25.4587 118.22 25.6565 118.31 25.8455C118.414 26.114 118.542 26.3725 118.693 26.6176C118.996 27.0435 119.337 27.4413 119.712 27.8065C119.877 27.9658 119.516 27.4531 119.229 27.0139C118.873 26.4528 118.588 25.8505 118.38 25.2205C118.38 25.2041 118.368 25.1878 118.364 25.1735C118.342 25.1172 118.317 25.0626 118.287 25.0101C118.27 24.9856 118.245 24.9671 118.217 24.9569C118.176 24.9365 118.138 24.9284 118.165 24.9018C118.192 24.8752 118.318 24.8201 118.51 24.6771C118.762 24.4728 118.828 24.1685 118.965 23.8437C119.015 23.7292 119.069 23.6173 119.131 23.5087C119.114 23.3044 119.159 23.0287 119.19 23.1002C119.19 23.1185 119.238 23.2472 119.254 23.3044V23.3392C119.273 23.4045 119.285 23.4556 119.285 23.4556C119.482 24.2076 119.718 24.9488 119.995 25.676C120.24 26.3574 120.533 27.0208 120.873 27.6615C120.918 27.7245 120.967 27.7838 121.021 27.8392C121.089 27.8402 121.155 27.8577 121.215 27.8902C121.24 27.9047 121.259 27.9271 121.27 27.9538C121.28 27.9805 121.282 28.0099 121.273 28.0373C121.368 28.0918 121.472 28.1323 121.58 28.1578C122.112 28.2906 122.551 28.3621 122.912 28.2558L123.033 28.213C123.05 28.213 123.058 28.2028 123.033 28.213C123.017 28.213 122.965 28.2702 122.93 28.3028C122.846 28.3832 122.745 28.4433 122.634 28.4787C122.522 28.5141 122.405 28.5238 122.289 28.5072C122.275 28.5072 122.289 28.5072 122.289 28.5215C122.465 28.6828 122.885 28.5602 123.005 28.4704C123.124 28.3805 123.085 28.3907 123.238 28.4438C123.281 28.4602 123.305 28.4561 123.318 28.4438C123.363 28.4254 123.368 28.2558 123.396 28.1231C123.417 28.0342 123.461 27.9525 123.524 27.8862C123.592 27.8497 123.668 27.8325 123.744 27.8365C123.82 27.8405 123.894 27.8654 123.957 27.9086C123.97 27.8949 123.986 27.8842 124.004 27.8772C124.022 27.8701 124.041 27.8669 124.06 27.8678L124.078 27.8698ZM120.407 29.4713C120.448 29.4427 120.365 29.4141 120.368 29.1485C120.368 29.1485 120.401 28.9933 120.31 28.9442C120.219 28.8952 120.067 28.9626 120.081 29.0505C120.092 29.1428 120.115 29.2334 120.149 29.3202C120.228 29.4938 120.355 29.5039 120.407 29.4754V29.4713ZM121.85 29.4284C121.945 29.3835 121.951 29.3242 121.928 29.3303C121.808 29.3804 121.679 29.4101 121.549 29.4182C121.363 29.4182 121.052 29.4345 120.962 29.5244C120.871 29.6142 120.786 29.8798 120.998 29.7512C121.121 29.6492 121.267 29.5791 121.423 29.5468C121.569 29.5202 121.712 29.4799 121.85 29.4263V29.4284ZM118.083 24.3605C118.422 24.1562 118.516 23.7477 118.615 23.4617C118.704 23.1971 118.839 22.9502 119.015 22.7325C119.046 22.6937 118.974 22.4915 118.931 22.3975C118.926 22.3836 118.918 22.3711 118.908 22.3607C118.89 22.3576 118.872 22.3576 118.855 22.3607C118.825 22.3607 118.792 22.3607 118.778 22.3301C118.808 22.2192 118.832 22.1067 118.848 21.993C118.862 21.8033 118.843 21.6127 118.792 21.4292C118.777 21.3504 118.735 21.2787 118.675 21.225C118.642 21.1964 118.675 21.2944 118.693 21.4497C118.702 21.6422 118.665 21.8339 118.584 22.0094C118.487 22.2014 118.378 22.3729 118.326 22.4812C118.275 22.5895 118.306 22.6855 118.396 22.7018C118.428 22.7018 118.455 22.7018 118.465 22.7733C118.479 22.8693 118.465 23.0715 118.102 23.4903C117.952 23.646 117.79 23.7882 117.615 23.9152C117.624 23.9782 117.624 24.0422 117.615 24.1052C117.605 24.1906 117.576 24.2728 117.531 24.3462C117.513 24.3603 117.495 24.3726 117.475 24.3829C117.298 24.4932 117.475 24.7384 117.475 24.7384C117.475 24.7384 117.619 24.6648 118.093 24.3666L118.083 24.3605ZM113.722 19.1945C114.02 18.6422 114.377 18.1236 114.788 17.6482C114.951 17.4758 115.125 17.3161 115.312 17.1702C115.467 17.0579 115.256 17.0742 114.737 17.4215C114.494 17.5861 114.285 17.7938 114.118 18.0343C113.708 18.6412 113.347 19.2783 113.036 19.9402C112.874 20.2875 112.648 20.6025 112.372 20.8695C112.058 21.1392 111.731 21.2393 111.548 21.4006C111.525 21.4182 111.505 21.4373 111.485 21.4578C111.463 21.4776 111.445 21.5012 111.43 21.5273C111.404 21.5742 111.392 21.6271 111.393 21.6805C111.402 21.7273 111.402 21.7755 111.392 21.8221C111.382 21.8688 111.362 21.913 111.335 21.9522C111.229 22.0418 111.105 22.1079 110.972 22.1462L110.922 22.1605L110.752 22.2055C110.607 22.2258 110.527 22.2912 110.646 22.3587C110.692 22.3834 110.74 22.4012 110.791 22.4118C110.9 22.4404 110.931 22.4608 110.929 22.5098C110.927 22.5588 110.851 22.6895 110.568 22.7754C110.208 22.8642 109.836 22.9041 109.465 22.8938C109.291 22.8764 109.115 22.8764 108.942 22.8938C108.894 22.9184 108.911 22.9776 109.108 23.0388C109.215 23.0675 109.485 23.1145 109.609 23.1573C109.685 23.1839 109.665 23.2472 109.57 23.2635C109.283 23.2952 108.993 23.2729 108.715 23.1982C108.715 23.1982 108.615 23.1635 108.576 23.1451C108.458 23.0875 108.357 23.0001 108.284 22.8918C108.257 22.8428 108.246 22.7529 108.208 22.7284L108.002 23.0164C108.002 23.0164 107.972 23.1042 108.129 23.2983C108.152 23.2718 108.149 23.2248 108.17 23.19C108.191 23.1553 108.261 23.1063 108.305 23.1675C108.318 23.1961 108.326 23.2275 108.326 23.2595C108.326 23.2914 108.318 23.3229 108.305 23.3514C108.289 23.3785 108.281 23.4085 108.279 23.4392C108.278 23.446 108.278 23.4528 108.279 23.4597C108.428 23.5649 108.6 23.6348 108.781 23.6639C109.149 23.7388 109.53 23.7318 109.896 23.6435C109.931 23.6435 110.079 23.6068 110.09 23.6435C110.087 23.6969 110.073 23.7492 110.048 23.7967C110.018 23.8723 110.001 23.8948 109.982 23.9418C109.964 23.9887 109.999 23.9908 110.005 23.9846C110.062 23.9512 110.114 23.9092 110.158 23.86C110.213 23.809 110.385 23.6558 110.428 23.6088C110.578 23.474 110.663 23.4045 110.634 23.3351C110.634 23.3228 110.613 23.2472 110.609 23.2227C110.609 23.1226 110.658 23.0328 110.815 22.9225C110.98 22.8364 111.135 22.7345 111.279 22.6181C111.432 22.4648 111.322 22.2953 111.452 22.1503C111.582 22.0053 111.803 21.946 111.865 21.8358C111.98 21.6764 111.976 21.6315 112.094 21.4435C112.309 21.1799 112.541 20.9302 112.788 20.6959C113.201 20.2343 113.345 19.8196 113.708 19.1966L113.722 19.1945ZM118.498 11.9778C118.411 12.0043 118.335 12.0574 118.364 12.1044C118.392 12.1514 118.479 12.1452 118.644 12.0717C118.809 11.9982 118.881 11.9308 118.805 11.9267C118.702 11.9361 118.598 11.9532 118.498 11.9778ZM110.399 16.2102C109.948 16.2898 109.797 16.3164 109.712 16.3348C108.952 17.0088 109.352 17.638 109.597 17.7872C109.762 17.8913 109.585 17.7279 110.318 16.8209C110.599 16.5382 110.906 16.2831 111.236 16.059C111.154 16.059 110.791 16.1408 110.399 16.2102ZM120.138 11.4324C120.265 11.4924 120.388 11.5606 120.505 11.6366C120.532 11.6589 120.557 11.6828 120.58 11.7082C120.614 11.7026 120.645 11.6868 120.668 11.663C120.692 11.6392 120.708 11.6085 120.714 11.5753C120.728 11.5059 120.66 11.4528 120.52 11.4324C120.38 11.4119 120.314 11.3833 120.238 11.3752C120.214 11.3718 120.189 11.3732 120.166 11.3795C120.142 11.3859 120.121 11.3969 120.102 11.4119L120.138 11.4303" fill="#F2F2F2"/>
</g>
<defs>
<clipPath id="clip0_56_7">
<rect width="220" height="30.7692" fill="white"/>
</clipPath>
</defs>
</svg>
